<?xml version="1.0" standalone="no"?>
<!DOCTYPE svg PUBLIC "-//W3C//DTD SVG 20010904//EN"
 "http://www.w3.org/TR/2001/REC-SVG-20010904/DTD/svg10.dtd">
<svg version="1.0" xmlns="http://www.w3.org/2000/svg"
 width="2083.000000pt" height="2083.000000pt" viewBox="0 0 2083.000000 2083.000000"
 preserveAspectRatio="xMidYMid meet">
<metadata>
Created by potrace 1.11, written by Peter Selinger 2001-2013
</metadata>
<g transform="translate(0.000000,2083.000000) scale(0.100000,-0.100000)"
fill="#000000" stroke="none">
<path d="M1870 20820 c-30 -4 -77 -10 -105 -14 -97 -13 -326 -74 -400 -105
-11 -5 -45 -19 -75 -31 -135 -54 -359 -183 -476 -275 -263 -206 -451 -439
-600 -740 -105 -213 -166 -419 -203 -680 -11 -78 -10 -17106 0 -17140 4 -11
10 -42 13 -70 9 -66 49 -231 79 -325 201 -625 708 -1133 1337 -1339 52 -17
104 -33 115 -35 11 -2 38 -9 60 -14 53 -14 81 -20 200 -37 87 -13 1194 -15
8592 -15 7580 0 8505 2 8610 15 571 75 1088 386 1428 860 198 276 334 624 373
950 10 82 9 17116 -1 17186 -4 31 -10 67 -13 80 -3 13 -7 35 -10 49 -2 14 -7
36 -10 50 -3 14 -8 36 -11 50 -13 69 -85 277 -124 354 -16 33 -29 63 -29 67 0
12 -92 168 -148 251 -223 331 -550 599 -917 753 -154 65 -346 120 -490 141
-22 3 -51 8 -65 12 -34 9 -17061 11 -17130 2z"/>
</g>
</svg>
